<svg t="1733187580456" class="icon" viewBox="0 0 1024 1024" version="1.1" xmlns="http://www.w3.org/2000/svg" p-id="3621" width="200" height="200"><path d="M667.0336 304.5376h220.16a57.3952 57.3952 0 0 1 57.3952 57.3952v447.5904a117.76 117.76 0 0 1-117.76 117.76h-159.744V304.5376h-0.0512z" fill="#0F059B" p-id="3622"></path><path d="M667.0336 348.9792h212.0704a21.5552 21.5552 0 0 1 21.5552 21.5552v438.9888a117.76 117.76 0 0 1-117.76 117.76h-115.8656V348.9792z" fill="#402AD2" p-id="3623"></path><path d="M225.28 91.392h431.8208A136.2944 136.2944 0 0 1 793.6 227.6864v699.4944H201.472a112.64 112.64 0 0 1-112.64-112.64V227.6864A136.2944 136.2944 0 0 1 225.28 91.392z" fill="#0F059B" p-id="3624"></path><path d="M201.472 135.1168h431.0016a112.64 112.64 0 0 1 112.64 112.64v679.424H201.472a112.64 112.64 0 0 1-112.64-112.64V247.552a112.64 112.64 0 0 1 112.64-112.64z" fill="#534FFF" p-id="3625"></path><path d="M181.4528 232.192m58.1632 0l131.84 0q58.1632 0 58.1632 58.1632l0 260.7616q0 58.1632-58.1632 58.1632l-131.84 0q-58.1632 0-58.1632-58.1632l0-260.7616q0-58.1632 58.1632-58.1632Z" fill="#FCB423" p-id="3626"></path><path d="M181.4528 258.0992m47.7184 0l124.7232 0q47.7184 0 47.7184 47.7184l0 255.6928q0 47.7184-47.7184 47.7184l-124.7232 0q-47.7184 0-47.7184-47.7184l0-255.6928q0-47.7184 47.7184-47.7184Z" fill="#FFD62C" p-id="3627"></path><path d="M636.9792 792.4736h-424.96c-20.48 0-37.4784-21.4016-37.4784-47.7696s16.9984-47.7696 42.8544-47.7696h419.584c20.48 0 37.4272 21.3504 37.4272 47.7696s-16.7424 47.7696-37.4272 47.7696z" fill="#FCB423" p-id="3628"></path><path d="M621.8752 792.4736H210.7904a37.4784 37.4784 0 0 1 0-74.9568h411.0848a37.4784 37.4784 0 0 1 0 74.9568z" fill="#FFD62C" p-id="3629"></path><path d="M640.3584 556.544h-119.7568c-21.1456 0-38.2464-21.248-38.2464-47.4624s17.1008-47.4112 38.2464-47.4112h119.7568c21.1456 0 38.2976 21.248 38.2976 47.4112s-17.152 47.4624-38.2976 47.4624z" fill="#FCB423" p-id="3630"></path><path d="M627.1488 556.544h-109.7216a37.5808 37.5808 0 0 1 0-74.9568h109.7216a37.5808 37.5808 0 0 1 0 74.9568z" fill="#FFD62C" p-id="3631"></path><path d="M640.3584 353.9456h-119.7568c-21.1456 0-38.2464-21.1968-38.2464-47.4112s17.1008-47.4112 38.2464-47.4112h119.7568c21.1456 0 38.2976 21.248 38.2976 47.4112s-17.152 47.4112-38.2976 47.4112z" fill="#FCB423" p-id="3632"></path><path d="M627.1488 353.9456h-109.7216a37.5296 37.5296 0 0 1 0-74.9056h109.7216a37.5296 37.5296 0 0 1 0 74.9056z" fill="#FFD62C" p-id="3633"></path></svg>
