<svg t="1733188100164" class="icon" viewBox="0 0 1152 1024" version="1.1" xmlns="http://www.w3.org/2000/svg" p-id="6847" width="200" height="200"><path d="M128 0h1024v1024H128z" fill="#FFFFFF" opacity=".01" p-id="6848"></path><path d="M281.6 256a51.2 51.2 0 0 1 51.2-51.2h614.4a51.2 51.2 0 0 1 51.2 51.2v512a102.4 102.4 0 0 1-102.4 102.4H384a102.4 102.4 0 0 1-102.4-102.4V256z" fill="#252525" opacity=".903" p-id="6849"></path><path d="M911.616 332.8768l-221.7216 24.4992c-7.3472 0.8192-10.4704 9.088-5.2224 13.8752l65.9968 60.544-251.5456 230.6816-113.3056-103.808a18.944 18.944 0 0 0-25.1648 0L2.5856 887.1424A7.8592 7.8592 0 0 0 0 892.928c0 2.1504 0.9216 4.224 2.5856 5.76l50.0992 46.1312a9.5232 9.5232 0 0 0 12.544 0L373.248 662.4768l113.2032 103.808a19.0464 19.0464 0 0 0 25.1648 0l302.08-276.8128 65.9968 60.5184a9.6768 9.6768 0 0 0 9.216 1.92 8.96 8.96 0 0 0 3.9936-2.56 7.8336 7.8336 0 0 0 1.92-4.1472l26.7264-203.3408c0.768-5.2224-4.1216-9.7024-9.9072-8.9856z" fill="#EAC188" p-id="6850"></path><path d="M998.4 153.6a51.2 51.2 0 1 1 0 102.4H281.6a51.2 51.2 0 1 1 0-102.4h716.8z" fill="#252525" opacity=".903" p-id="6851"></path></svg>
