<svg t="1709003377142" class="icon" viewBox="0 0 1024 1024" version="1.1" xmlns="http://www.w3.org/2000/svg" p-id="32178" width="128" height="128"><path d="M96 32h832a64 64 0 0 1 64 64v832a64 64 0 0 1-64 64H96a64 64 0 0 1-64-64V96a64 64 0 0 1 64-64z" fill="#d81e06" p-id="32179" data-spm-anchor-id="a313x.search_index.0.i16.7cff3a81fPgBmD" class="selected"></path><path d="M563.872 511.808l237.376-237.184a36.544 36.544 0 0 0 0-51.776 36.512 36.512 0 0 0-51.808 0L512 459.936 274.56 222.752a36.48 36.48 0 0 0-51.776 0 36.48 36.48 0 0 0 0 51.776l237.344 237.184-237.344 237.28a36.448 36.448 0 0 0 0 51.744 36.448 36.448 0 0 0 51.776 0l237.44-237.12 237.44 237.248c7.2 7.2 16.512 10.688 25.92 10.688s18.72-3.488 25.92-10.688a36.576 36.576 0 0 0 0-51.808l-237.408-237.248z" fill="#ffffff" p-id="32180" data-spm-anchor-id="a313x.search_index.0.i17.7cff3a81fPgBmD" class=""></path></svg>
